<?xml version="1.0" standalone="no"?><!DOCTYPE svg PUBLIC "-//W3C//DTD SVG 1.1//EN" "http://www.w3.org/Graphics/SVG/1.1/DTD/svg11.dtd"><svg t="1626004692281" class="icon" viewBox="0 0 1024 1024" version="1.1" xmlns="http://www.w3.org/2000/svg" p-id="2354" xmlns:xlink="http://www.w3.org/1999/xlink" width="400" height="400"><defs><style type="text/css"></style></defs><path d="M819.2 870.4H226.133333c-25.6 0-42.666667-17.066667-42.666666-42.666667v-268.8c0-187.733333 153.6-337.066667 337.066666-337.066666 183.466667 0 337.066667 153.6 337.066667 337.066666v268.8c4.266667 25.6-17.066667 42.666667-38.4 42.666667z m-550.4-85.333333h503.466667v-226.133334c0-140.8-115.2-251.733333-251.733334-251.733333s-251.733333 115.2-251.733333 251.733333v226.133334z" fill="#dbdbdb" p-id="2355"></path><path d="M960 1002.666667H85.333333c-25.6 0-42.666667-17.066667-42.666666-42.666667 0-93.866667 76.8-174.933333 174.933333-174.933333h614.4c93.866667 0 174.933333 76.8 174.933333 174.933333-4.266667 25.6-21.333333 42.666667-46.933333 42.666667z m-819.2-85.333334h768c-17.066667-25.6-42.666667-46.933333-76.8-46.933333H217.6c-34.133333 0-64 21.333333-76.8 46.933333z" fill="#dbdbdb" p-id="2356"></path><path d="M332.8 614.4c-25.6 0-42.666667-17.066667-42.666667-42.666667 0-132.266667 110.933333-243.2 243.2-243.2 25.6 0 42.666667 17.066667 42.666667 42.666667s-17.066667 42.666667-42.666667 42.666667c-85.333333 0-157.866667 72.533333-157.866666 157.866666 0 25.6-21.333333 42.666667-42.666667 42.666667zM524.8 209.066667c-25.6 0-42.666667-17.066667-42.666667-42.666667V85.333333c0-25.6 17.066667-42.666667 42.666667-42.666666s42.666667 17.066667 42.666667 42.666666v81.066667c0 25.6-21.333333 42.666667-42.666667 42.666667zM256 298.666667c-12.8 0-21.333333-4.266667-29.866667-12.8L166.4 226.133333c-17.066667-17.066667-17.066667-42.666667 0-59.733333 17.066667-17.066667 42.666667-17.066667 59.733333 0l59.733334 59.733333c17.066667 17.066667 17.066667 42.666667 0 59.733334-8.533333 8.533333-21.333333 12.8-29.866667 12.8zM789.333333 298.666667c-12.8 0-21.333333-4.266667-29.866666-12.8-17.066667-17.066667-17.066667-42.666667 0-59.733334l59.733333-59.733333c17.066667-17.066667 42.666667-17.066667 59.733333 0 17.066667 17.066667 17.066667 42.666667 0 59.733333l-59.733333 59.733334c-8.533333 8.533333-17.066667 12.8-29.866667 12.8z" fill="#dbdbdb" p-id="2357"></path></svg>
